<svg id="Capa_1" enable-background="new 0 0 512.225 512.225" height="512" viewBox="0 0 512.225 512.225" width="512" xmlns="http://www.w3.org/2000/svg"><g><g><g><path d="m437.832 231.979v164.911c0 24.742-20.048 44.8-44.778 44.8h-57.548v-36.995h52.215c9.359 0 16.946-7.591 16.946-16.954v-146.613c0-9.355-7.586-16.954-16.946-16.954h-52.215v-36.985h57.557c24.725 0 44.769 20.053 44.769 44.79z" fill="#62dbfb"/></g></g><g><g><path d="m437.835 231.979v164.914c0 24.742-20.049 44.801-44.78 44.801h-15.87c24.731 0 44.771-20.059 44.771-44.801v-164.914c0-24.734-20.04-44.792-44.762-44.792h15.87c24.722-.001 44.771 20.058 44.771 44.792z" fill="#01d0fb"/></g></g><g><path d="m315.129 104.837h-212.876l-21.61 32.22c-4.074 6.075-6.25 13.226-6.25 20.542v268.762c0 23.909 19.373 43.29 43.27 43.29h182.057c23.897 0 43.27-19.382 43.27-43.29v-268.762c0-7.316-2.176-14.467-6.25-20.542z" fill="#c8effe"/></g><g><path d="m342.986 157.601v268.762c0 23.904-19.37 43.293-43.263 43.293h-18.056c23.893 0 43.263-19.388 43.263-43.293v-268.762c0-7.321-2.169-14.466-6.242-20.544l-21.609-32.222h18.048l21.609 32.222c4.081 6.078 6.25 13.223 6.25 20.544z" fill="#99e6fc"/></g><g><path d="m302.309 469.651h-187.236v23.057c0 6.635 5.376 12.013 12.007 12.013l163.221.003c6.632 0 12.008-5.378 12.008-12.013z" fill="#62dbfb"/></g><g><path d="m302.306 469.656v23.058c0 6.633-5.369 12.014-12.008 12.014h-18.621c6.612-.018 11.973-5.39 11.973-12.014v-23.058z" fill="#01d0fb"/></g><g><path d="m262.271 7.5c9.523 0 16.76 8.566 15.174 17.96l-32.612 193.218-31.071.002 33.333-198.337c1.246-7.413 7.662-12.843 15.176-12.843z" fill="#f3f0f3"/></g><g><path d="m277.444 25.458-32.61 193.223h-16.42l32.62-193.223c1.07-6.393-1.93-12.396-6.96-15.587 2.39-1.511 5.2-2.371 8.2-2.371 9.52-.001 16.76 8.563 15.17 17.958z" fill="#e2dee2"/></g><g><path d="m322.979 104.584h-228.576c-10.428 0-18.882-8.454-18.882-18.882v-.009c0-10.428 8.454-18.882 18.882-18.882h228.577c10.428 0 18.882 8.454 18.882 18.882v.009c-.001 10.428-8.454 18.882-18.883 18.882z" fill="#62dbfb"/></g><g><path d="m341.858 85.694c0 5.222-2.107 9.941-5.528 13.364-3.412 3.414-8.129 5.531-13.348 5.531h-18.85c5.219 0 9.936-2.117 13.348-5.531 3.421-3.422 5.528-8.142 5.528-13.364 0-10.426-8.446-18.885-18.876-18.885h18.85c10.429-.001 18.876 8.459 18.876 18.885z" fill="#01d0fb"/></g><g><path d="m342.986 171.309v255.054c0 23.904-19.37 43.293-43.263 43.293h-182.063c-23.893 0-43.263-19.388-43.263-43.293v-268.762c0-.168 0-.335.009-.503 33.036 1.297 65.886 12.649 97.318 23.278 40.706 13.769 85.336 26.709 127.047 15.56 16.928-4.524 32.11-13.266 44.215-24.627z" fill="#fe93d3"/></g><g><path d="m342.986 171.309v255.054c0 23.904-19.37 43.293-43.263 43.293h-18.056c23.893 0 43.263-19.388 43.263-43.293v-241.479c6.559-3.89 12.616-8.468 18.056-13.575z" fill="#fe73c5"/></g><g><path d="m437.832 330.363c4.143 0 7.5-3.357 7.5-7.5v-90.884c0-28.833-23.448-52.291-52.27-52.291h-42.573v-22.09c0-8.835-2.601-17.383-7.521-24.72l-14.356-21.406c11.849-2.587 20.75-13.158 20.75-25.776 0-15.043-12.31-26.387-28.634-26.387h-41.389l5.503-32.603c1.124-6.66-.731-13.438-5.092-18.596-4.359-5.153-10.73-8.11-17.479-8.11-11.219 0-20.712 8.033-22.573 19.101l-6.758 40.21h-49.643c-4.142 0-7.5 3.357-7.5 7.5s3.358 7.5 7.5 7.5h137.429c8.027 0 13.634 4.683 13.634 11.387 0 6.278-5.104 11.387-11.377 11.387h-228.585c-6.273 0-11.377-5.108-11.377-11.387s5.104-11.387 11.377-11.387h53.647c4.142 0 7.5-3.357 7.5-7.5s-3.358-7.5-7.5-7.5h-53.647c-14.544 0-26.377 11.837-26.377 26.387 0 12.618 8.901 23.189 20.75 25.776l-14.356 21.406c-4.921 7.337-7.522 15.885-7.522 24.72v268.763c0 24.551 17.503 45.085 40.681 49.78v16.567c0 10.76 8.751 19.514 19.507 19.514l163.22.003h.003c5.21 0 10.108-2.03 13.793-5.716 3.684-3.686 5.712-8.585 5.712-13.797v-16.571c15.429-3.125 28.335-13.274 35.246-26.951h47.999c28.826 0 52.278-23.462 52.278-52.3v-39.326c0-4.143-3.357-7.5-7.5-7.5s-7.5 3.357-7.5 7.5v39.326c0 20.567-16.723 37.3-37.278 37.3h-43.179c.397-2.554.615-5.166.615-7.829v-14.166h37.231c13.479 0 24.446-10.97 24.446-24.453v-146.616c0-13.484-10.967-24.454-24.446-24.454h-37.231v-21.985h42.573c20.551 0 37.27 16.729 37.27 37.291v90.884c-.001 4.142 3.356 7.499 7.499 7.499zm-167.782-306.151-5.924 35.099h-15.974l6.34-37.724c.641-3.816 3.914-6.587 7.78-6.587 2.359 0 4.498.993 6.022 2.796 1.526 1.806 2.149 4.084 1.756 6.416zm-30.81 88.125h15.936l-13.28 78.683c-5.138-.708-10.283-1.618-15.427-2.692zm-152.368 28.897 19.381-28.897h117.776l-12.19 72.532c-13.445-3.525-26.89-7.935-39.911-12.341-28.833-9.756-58.57-19.795-89.056-22.391.826-3.148 2.158-6.157 4-8.903zm207.936 351.478c0 1.206-.47 2.34-1.321 3.192s-1.981 1.32-3.185 1.32h-.001l-163.221-.003c-2.485 0-4.507-2.024-4.507-4.514v-15.557h172.235zm4.911-30.561h-182.056c-19.724 0-35.77-16.056-35.77-35.79l.004-261.273c28.618 2.496 57.355 12.219 85.222 21.649 35.458 11.998 73.164 23.631 111.229 20.321 7.546-.656 15.041-1.92 22.36-3.877 12.413-3.318 24.212-8.825 34.778-16.176l.003 239.355c0 19.736-16.046 35.791-35.77 35.791zm35.77-294.169c-11.127 9.769-24.426 16.905-38.654 20.708-13.071 3.494-26.458 4.485-39.971 3.772l13.524-80.126h40.741l19.382 28.897c3.257 4.856 4.979 10.516 4.979 16.364v10.385zm52.231 63.692c5.209 0 9.446 4.241 9.446 9.454v146.614c0 5.213-4.237 9.453-9.446 9.453h-37.231v-165.521z"/><path d="m121.67 218.679c-5.523 0-10 4.479-10 10.005 0 5.525 4.477 10.005 10 10.005s10-4.479 10-10.005-4.477-10.005-10-10.005z"/><path d="m158.046 248.693c-5.523 0-10 4.479-10 10.005 0 5.525 4.477 10.005 10 10.005s10-4.479 10-10.005c0-5.525-4.477-10.005-10-10.005z"/><path d="m276.555 301.252c-5.523 0-10 4.479-10 10.005 0 5.525 4.477 10.005 10 10.005s10-4.479 10-10.005c0-5.525-4.477-10.005-10-10.005z"/><path d="m192.63 375.608c-5.523 0-10 4.479-10 10.005 0 5.525 4.477 10.005 10 10.005s10-4.479 10-10.005-4.478-10.005-10-10.005z"/><ellipse cx="239.297" cy="248.693" rx="10" ry="10.005"/><path d="m212.63 348.709c-5.523 0-10 4.479-10 10.005s4.477 10.005 10 10.005 10-4.479 10-10.005c0-5.525-4.478-10.005-10-10.005z"/><ellipse cx="296.555" cy="408.795" rx="10" ry="10.005"/><ellipse cx="121.67" cy="343.099" rx="10" ry="10.005"/></g></g></svg>