<svg id="Capa_1" enable-background="new 0 0 512 512" height="512" viewBox="0 0 512 512" width="512" xmlns="http://www.w3.org/2000/svg"><g><g><path d="m361.844 88.511c9.574-5.095 18.216-12.073 25.508-20.052 11.392-12.466 19.007-27.981 20.85-44.779.204-1.858-.709-3.665-2.327-4.602-14.428-8.347-31.187-11.441-47.765-9.785-13.478 1.346-27.447 5.208-38.73 12.996-17.969 12.403-32.55 30.891-37.171 52.653-.44 2.072-.791 4.163-1.053 6.264-.043.348-.169 1.863-.286 3.32-.148 1.848.805 3.612 2.433 4.498 4.151 2.26 8.516 4.125 13.017 5.568 21.107 6.765 45.872 4.378 65.524-6.081z" fill="#00c27a"/></g><g><path d="m408.207 23.681c-1.848 16.802-9.46 32.315-20.858 44.782-7.292 7.971-15.933 14.954-25.503 20.049-19.659 10.459-44.422 12.846-65.53 6.084-4.495-1.448-8.861-3.306-13.016-5.574-1.628-.879-2.577-2.647-2.427-4.495.08-.999.16-2.018.22-2.677 20.928 6.463 45.331 4.006 64.751-6.323 9.57-5.095 18.21-12.067 25.503-20.049 10.908-11.937 18.35-26.661 20.588-42.634 4.825 1.588 9.49 3.656 13.945 6.233 1.618.938 2.527 2.746 2.327 4.604z" fill="#08b865"/></g><g><path d="m424.942 327.982h-337.884c-19.049 0-34.491-15.442-34.491-34.491v-6.791c0-19.049 15.442-34.491 34.491-34.491h337.884c19.049 0 34.491 15.442 34.491 34.491v6.791c0 19.048-15.442 34.491-34.491 34.491z" fill="#fdb97e"/></g><g><path d="m424.942 403.755h-337.884c-19.049 0-34.491-15.442-34.491-34.491v-6.791c0-19.049 15.442-34.491 34.491-34.491h337.884c19.049 0 34.491 15.442 34.491 34.491v6.791c0 19.049-15.442 34.491-34.491 34.491z" fill="#fe9738"/></g><g><path d="m424.942 252.208h-337.884c-19.049 0-34.491-15.442-34.491-34.491v-6.791c0-19.049 15.442-34.491 34.491-34.491h337.884c19.049 0 34.491 15.442 34.491 34.491v6.791c0 19.049-15.442 34.491-34.491 34.491z" fill="#fe9738"/></g><g><path d="m459.432 286.699v6.793c0 19.05-15.443 34.493-34.493 34.493h-20.188c19.05 0 34.493-15.443 34.493-34.493v-6.793c0-19.05-15.443-34.493-34.493-34.493h20.188c19.049 0 34.493 15.443 34.493 34.493z" fill="#fea95c"/></g><g><path d="m459.432 362.477v6.783c0 19.05-15.443 34.493-34.493 34.493h-20.188c19.05 0 34.493-15.443 34.493-34.493v-6.783c0-19.05-15.443-34.493-34.493-34.493h20.188c19.049 0 34.493 15.444 34.493 34.493z" fill="#fe860a"/></g><g><path d="m459.432 210.93v6.783c0 19.05-15.443 34.493-34.493 34.493h-20.188c19.05 0 34.493-15.443 34.493-34.493v-6.783c0-19.05-15.443-34.493-34.493-34.493h20.188c19.049 0 34.493 15.443 34.493 34.493z" fill="#fe860a"/></g><g><path d="m488.142 446.201h-464.284c-9.039 0-16.366-7.327-16.366-16.366v-9.417c0-9.039 7.327-16.366 16.366-16.366h464.285c9.039 0 16.366 7.327 16.366 16.366v9.417c-.001 9.039-7.328 16.366-16.367 16.366z" fill="#cbc4cc"/></g><g><path d="m504.504 420.423v9.41c0 9.04-7.322 16.372-16.362 16.372h-20.298c9.04 0 16.372-7.332 16.372-16.372v-9.41c0-9.04-7.332-16.372-16.372-16.372h20.298c9.039-.001 16.362 7.331 16.362 16.372z" fill="#b5adb6"/></g><g><path d="m413.489 503.144h-314.978c-27.285 0-49.403-22.118-49.403-49.403v-7.54h413.783v7.54c.001 27.284-22.118 49.403-49.402 49.403z" fill="#f3f0f3"/></g><g><path d="m462.888 446.199v7.542c0 27.281-22.116 49.407-49.397 49.407h-24.983c27.291 0 49.407-22.126 49.407-49.407v-7.542z" fill="#e2dee2"/></g><g><path d="m377.489 128.198h-244.743c-13.32 0-24.118 10.798-24.118 24.118 0 13.32 10.798 24.118 24.118 24.118h114.422c18.57 0 33.623 15.054 33.623 33.623v58.139c0 12.094 9.804 21.898 21.898 21.898 12.094 0 21.898-9.804 21.898-21.898v-58.139c0-18.57 15.054-33.623 33.623-33.623h19.279c13.32 0 24.118-10.798 24.118-24.118 0-13.32-10.798-24.118-24.118-24.118z" fill="#7bacdf"/></g><g><circle cx="223.241" cy="96.682" fill="#0078c8" r="43.055"/></g><g><path d="m266.299 96.682c0 23.775-19.279 43.054-43.054 43.054-8.171 0-15.803-2.268-22.306-6.223 1.079.09 2.158.13 3.257.13 23.775 0 43.054-19.279 43.054-43.054 0-15.613-8.311-29.289-20.748-36.831 22.256 1.659 39.797 20.249 39.797 42.924z" fill="#0268b4"/></g><g><circle cx="288.759" cy="96.682" fill="#0078c8" r="43.055"/></g><g><path d="m331.819 96.682c0 23.775-19.279 43.054-43.064 43.054-8.161 0-15.793-2.268-22.296-6.223 1.079.09 2.158.13 3.247.13 23.785 0 43.054-19.279 43.054-43.054 0-15.613-8.311-29.289-20.748-36.831 22.266 1.659 39.807 20.249 39.807 42.924z" fill="#0268b4"/></g><g><path d="m488.143 396.561h-31.342c6.303-7.346 10.125-16.881 10.125-27.297v-6.791c0-14.276-7.168-26.903-18.088-34.491 10.92-7.589 18.088-20.216 18.088-34.491v-6.791c0-14.276-7.168-26.903-18.088-34.491 10.92-7.589 18.088-20.216 18.088-34.491v-6.791c0-23.15-18.833-41.983-41.983-41.983h-20.584c3.002-4.834 4.742-10.53 4.742-16.626 0-17.43-14.18-31.611-31.611-31.611h-44.278c2.723-5.018 4.629-10.54 5.519-16.394 9.291-1.708 18.335-4.771 26.634-9.188 10.036-5.341 19.295-12.612 27.518-21.611 12.928-14.146 20.801-31.096 22.767-49.016.528-4.809-1.836-9.481-6.023-11.904-15.402-8.912-33.468-12.63-52.26-10.756-16.479 1.645-31.087 6.585-42.242 14.285-12.162 8.394-22.033 18.664-29.143 30.092-11.408.621-21.814 5.05-29.986 12.023-8.828-7.537-20.263-12.103-32.753-12.103-27.872 0-50.547 22.675-50.547 50.547 0 8.69 2.205 16.874 6.084 24.024h-6.416c-4.138 0-7.492 3.354-7.492 7.492s3.354 7.492 7.492 7.492h18.767c8.738 7.206 19.928 11.539 32.112 11.539 12.49 0 23.928-4.564 32.757-12.099 8.83 7.535 20.269 12.099 32.76 12.099 12.179 0 23.358-4.338 32.094-11.539h56.636c9.168 0 16.627 7.459 16.627 16.627s-7.459 16.626-16.627 16.626h-19.28c-22.671 0-41.115 18.445-41.115 41.116v58.139c0 7.944-6.463 14.406-14.406 14.406s-14.406-6.462-14.406-14.406v-58.139c0-22.671-18.444-41.116-41.115-41.116h-114.423c-9.168 0-16.627-7.458-16.627-16.626s7.459-16.627 16.627-16.627h5.086c4.138 0 7.492-3.354 7.492-7.492s-3.354-7.492-7.492-7.492h-5.086c-17.43 0-31.611 14.181-31.611 31.611 0 6.097 1.74 11.793 4.742 16.626h-18.818c-23.15 0-41.983 18.834-41.983 41.983v6.791c0 14.276 7.168 26.903 18.088 34.491-10.92 7.589-18.088 20.216-18.088 34.491v6.791c0 14.276 7.168 26.903 18.088 34.491-10.92 7.589-18.088 20.216-18.088 34.491v6.791c0 10.416 3.821 19.951 10.125 27.297h-31.343c-13.155.001-23.857 10.703-23.857 23.858v9.417c0 13.155 10.702 23.858 23.857 23.858h17.759v.048c0 31.372 25.523 56.895 56.895 56.895h225.389c4.138 0 7.492-3.354 7.492-7.492s-3.354-7.492-7.492-7.492h-225.388c-23.11 0-41.911-18.801-41.911-41.911v-.048h398.799v.048c0 23.11-18.801 41.911-41.911 41.911h-54.966c-4.138 0-7.492 3.354-7.492 7.492s3.354 7.492 7.492 7.492h54.966c31.372 0 56.895-25.523 56.895-56.895v-.048h17.759c13.155 0 23.857-10.702 23.857-23.858v-9.417c0-13.155-10.702-23.857-23.857-23.857zm-164.507-368.107c9.075-6.264 21.254-10.312 35.218-11.707 14.994-1.498 29.358 1.241 41.677 7.924-1.937 14.076-8.382 27.432-18.709 38.734-6.969 7.626-15.094 14.02-23.497 18.492-6.071 3.231-12.728 5.582-19.607 7.071-3-19.511-17.203-35.366-35.807-40.803 5.582-7.377 12.586-14.093 20.725-19.711zm-100.395 103.791c-19.61 0-35.563-15.954-35.563-35.563s15.954-35.563 35.563-35.563c8.725 0 16.722 3.163 22.916 8.397-5.025 7.851-7.945 17.172-7.945 27.166 0 9.991 2.926 19.306 7.948 27.157-6.195 5.237-14.191 8.406-22.919 8.406zm65.518 0c-19.61 0-35.563-15.954-35.563-35.563s15.954-35.563 35.563-35.563 35.563 15.954 35.563 35.563c0 19.61-15.953 35.563-35.563 35.563zm43.32 77.813c0-14.409 11.723-26.132 26.131-26.132h66.732c14.887 0 27 12.112 27 26.999v6.791c0 14.887-12.112 26.999-27 26.999h-92.863zm-272.02 7.659v-6.791c0-14.887 12.112-26.999 27-26.999h160.11c14.408 0 26.131 11.723 26.131 26.132v34.658h-186.242c-14.887-.001-26.999-12.113-26.999-27zm0 75.773v-6.79c0-14.887 12.112-26.999 27-26.999h186.241v8.497c0 16.206 13.184 29.39 29.39 29.39 16.205 0 29.389-13.184 29.389-29.39v-8.498h92.863c14.887 0 27 12.112 27 26.999v6.791c0 14.887-12.112 26.999-27 26.999h-337.884c-14.887.001-26.999-12.111-26.999-26.999zm0 68.983c0-14.887 12.112-26.999 27-26.999h337.884c14.887 0 27 12.112 27 26.999v6.791c0 14.887-12.112 26.999-27 26.999h-337.885c-14.887 0-27-12.112-27-26.999v-6.791zm436.957 67.362c0 4.893-3.98 8.874-8.873 8.874h-464.286c-4.893 0-8.873-3.981-8.873-8.874v-9.417c0-4.893 3.98-8.874 8.873-8.874h464.286c4.893 0 8.873 3.981 8.873 8.874z"/><path d="m295.208 72.778c-3.832-1.56-8.204.283-9.764 4.116-1.559 3.832.284 8.204 4.116 9.763 3.907 1.59 6.668 6.289 6.154 10.476-.504 4.107 2.416 7.845 6.523 8.349.31.038.617.057.923.057 3.729 0 6.96-2.784 7.427-6.58 1.348-10.996-5.119-22.006-15.379-26.181z"/></g></g></svg>